HIERARCHY
ROOT Hips
{
	OFFSET 0.000000 0.000000 0.000000
	CHANNELS 6 Xposition Yposition Zposition Zrotation Yrotation Xrotation 
	JOINT LHipJoint
	{
		OFFSET 0.000000 0.000000 0.000000
		CHANNELS 3 Zrotation Yrotation Xrotation
		JOINT LeftUpLeg
		{
			OFFSET 1.363060 -1.794630 0.839290
			CHANNELS 3 Zrotation Yrotation Xrotation
			JOINT LeftLeg
			{
				OFFSET 2.448110 -6.726130 0.000000
				CHANNELS 3 Zrotation Yrotation Xrotation
				JOINT LeftFoot
				{
					OFFSET 2.562200 -7.039590 0.000000
					CHANNELS 3 Zrotation Yrotation Xrotation
					JOINT LeftToeBase
					{
						OFFSET 0.157640 -0.433110 2.322550
						CHANNELS 3 Zrotation Yrotation Xrotation
						End Site
						{
							OFFSET 0.000000 0.000000 0.000000
						}
					}
				}
			}
		}
	}
	JOINT RHipJoint
	{
		OFFSET 0.000000 0.000000 0.000000
		CHANNELS 3 Zrotation Yrotation Xrotation
		JOINT RightUpLeg
		{
			OFFSET -1.305520 -1.794630 0.839290
			CHANNELS 3 Zrotation Yrotation Xrotation
			JOINT RightLeg
			{
				OFFSET -2.542530 -6.985550 0.000000
				CHANNELS 3 Zrotation Yrotation Xrotation
				JOINT RightFoot
				{
					OFFSET -2.568260 -7.056230 0.000000
					CHANNELS 3 Zrotation Yrotation Xrotation
					JOINT RightToeBase
					{
						OFFSET -0.164730 -0.452590 2.363150
						CHANNELS 3 Zrotation Yrotation Xrotation
						End Site
						{
							OFFSET 0.000000 0.000000 0.000000
						}
					}
				}
			}
		}
	}
	JOINT LowerBack
	{
		OFFSET 0.000000 0.000000 0.000000
		CHANNELS 3 Zrotation Yrotation Xrotation
		JOINT Spine
		{
			OFFSET 0.028270 2.035590 -0.193380
			CHANNELS 3 Zrotation Yrotation Xrotation
			JOINT Spine1
			{
				OFFSET 0.056720 2.048850 -0.042750
				CHANNELS 3 Zrotation Yrotation Xrotation
				JOINT Neck
				{
					OFFSET 0.000000 0.000000 0.000000
					CHANNELS 3 Zrotation Yrotation Xrotation
					JOINT Neck1
					{
						OFFSET -0.054170 1.746240 0.172020
						CHANNELS 3 Zrotation Yrotation Xrotation
						JOINT Head
						{
							OFFSET 0.104070 1.761360 -0.123970
							CHANNELS 3 Zrotation Yrotation Xrotation
							End Site
							{
								OFFSET 0.000000 0.000000 0.000000
							}
						}
					}
				}
				JOINT LeftShoulder
				{
					OFFSET 0.000000 0.000000 0.000000
					CHANNELS 3 Zrotation Yrotation Xrotation
					JOINT LeftArm
					{
						OFFSET 3.362410 1.200890 -0.311210
						CHANNELS 3 Zrotation Yrotation Xrotation
						JOINT LeftForeArm
						{
							OFFSET 4.983000 -0.000000 -0.000000
							CHANNELS 3 Zrotation Yrotation Xrotation
							JOINT LeftHand
							{
								OFFSET 3.483560 -0.000000 -0.000000
								CHANNELS 3 Zrotation Yrotation Xrotation
								JOINT LeftFingerBase
								{
									OFFSET 0.000000 0.000000 0.000000
									CHANNELS 3 Zrotation Yrotation Xrotation
									JOINT LeftHandIndex1
									{
										OFFSET 0.715260 -0.000000 -0.000000
										CHANNELS 3 Zrotation Yrotation Xrotation
										End Site
										{
											OFFSET 0.000000 0.000000 0.000000
										}
									}
								}
								JOINT LThumb
								{
									OFFSET 0.000000 0.000000 0.000000
									CHANNELS 3 Zrotation Yrotation Xrotation
									End Site
									{
										OFFSET 0.000000 0.000000 0.000000
									}
								}
							}
						}
					}
				}
				JOINT RightShoulder
				{
					OFFSET 0.000000 0.000000 0.000000
					CHANNELS 3 Zrotation Yrotation Xrotation
					JOINT RightArm
					{
						OFFSET -3.136600 1.374050 -0.404650
						CHANNELS 3 Zrotation Yrotation Xrotation
						JOINT RightForeArm
						{
							OFFSET -5.241900 -0.000000 -0.000000
							CHANNELS 3 Zrotation Yrotation Xrotation
							JOINT RightHand
							{
								OFFSET -3.444170 -0.000000 -0.000000
								CHANNELS 3 Zrotation Yrotation Xrotation
								JOINT RightFingerBase
								{
									OFFSET 0.000000 0.000000 0.000000
									CHANNELS 3 Zrotation Yrotation Xrotation
									JOINT RightHandIndex1
									{
										OFFSET -0.622530 -0.000000 -0.000000
										CHANNELS 3 Zrotation Yrotation Xrotation
										End Site
										{
											OFFSET 0.000000 0.000000 0.000000
										}
									}
								}
								JOINT RThumb
								{
									OFFSET 0.000000 0.000000 0.000000
									CHANNELS 3 Zrotation Yrotation Xrotation
									End Site
									{
										OFFSET 0.000000 0.000000 0.000000
									}
								}
							}
						}
					}
				}
			}
		}
	}
}
MOTION
Frames: 5
Frame Time: 0.008333
0.000000 0.000000 0.000000 31.890537 8.772061 177.594929 -43.367745 46.204665 156.657397 27.936055 -86.551244 -41.015032 -27.887291 17.221910 49.286855 161.691234 71.493363 -95.630384 0.000000 0.000000 0.000000 4.152647 -2.677151 -12.216473 125.482726 53.828250 -16.843143 -110.850064 28.491672 127.982449 -129.702335 66.202138 178.050704 0.000000 0.000000 0.000000 -151.484740 87.205592 -124.853796 0.027809 -63.025582 -19.870269 14.056427 -12.074432 19.062791 3.916992 -28.501136 -44.391851 34.026582 -13.779172 52.367098 0.000000 0.000000 0.000000 -3.449825 9.201562 64.481138 -81.248050 -32.487671 68.098428 -30.210103 -10.492973 -34.933263 -25.189545 47.195354 -26.695398 -2.335594 -64.214953 0.000000 0.000000 0.000000 0.000000 0.000000 0.000000 0.000000 -129.518974 18.494929 -20.685531 -81.459924 -80.777877 165.561421 47.194394 -78.799835 162.553554 -115.228999 -31.218989 -17.872161 -127.290720 -26.198096 -0.000000 0.000000 0.000000 0.000000 0.000000 0.000000 0.000000 
0.000000 0.000000 0.000000 31.890537 8.772061 177.594929 -43.367745 46.204665 156.657397 27.936055 -86.551244 -41.015032 -27.887291 17.221910 49.286855 161.691234 71.493363 -95.630384 0.000000 0.000000 0.000000 4.152647 -2.677151 -12.216473 125.482726 53.828250 -16.843143 -110.850064 28.491672 127.982449 -129.702335 66.202138 178.050704 0.000000 0.000000 0.000000 -151.484740 87.205592 -124.853796 0.027809 -63.025582 -19.870269 14.056427 -12.074432 19.062791 3.916992 -28.501136 -44.391851 34.026582 -13.779172 52.367098 0.000000 0.000000 0.000000 -3.449825 9.201562 64.481138 -81.248050 -32.487671 68.098428 -30.210103 -10.492973 -34.933263 -25.189545 47.195354 -26.695398 -2.335594 -64.214953 0.000000 0.000000 0.000000 0.000000 0.000000 0.000000 0.000000 -129.518974 18.494929 -20.685531 -81.459924 -80.777877 165.561421 47.194394 -78.799835 162.553554 -115.228999 -31.218989 -17.872161 -127.290720 -26.198096 -0.000000 0.000000 0.000000 0.000000 0.000000 0.000000 0.000000 
0.000000 0.000000 0.000000 31.890537 8.772061 177.594929 -43.367745 46.204665 156.657397 27.936055 -86.551244 -41.015032 -27.887291 17.221910 49.286855 161.691234 71.493363 -95.630384 0.000000 0.000000 0.000000 4.152647 -2.677151 -12.216473 125.482726 53.828250 -16.843143 -110.850064 28.491672 127.982449 -129.702335 66.202138 178.050704 0.000000 0.000000 0.000000 -151.484740 87.205592 -124.853796 0.027809 -63.025582 -19.870269 14.056427 -12.074432 19.062791 3.916992 -28.501136 -44.391851 34.026582 -13.779172 52.367098 0.000000 0.000000 0.000000 -3.449825 9.201562 64.481138 -81.248050 -32.487671 68.098428 -30.210103 -10.492973 -34.933263 -25.189545 47.195354 -26.695398 -2.335594 -64.214953 0.000000 0.000000 0.000000 0.000000 0.000000 0.000000 0.000000 -129.518974 18.494929 -20.685531 -81.459924 -80.777877 165.561421 47.194394 -78.799835 162.553554 -115.228999 -31.218989 -17.872161 -127.290720 -26.198096 -0.000000 0.000000 0.000000 0.000000 0.000000 0.000000 0.000000 
0.000000 0.000000 0.000000 31.890537 8.772061 177.594929 -43.367745 46.204665 156.657397 27.936055 -86.551244 -41.015032 -27.887291 17.221910 49.286855 161.691234 71.493363 -95.630384 0.000000 0.000000 0.000000 4.152647 -2.677151 -12.216473 125.482726 53.828250 -16.843143 -110.850064 28.491672 127.982449 -129.702335 66.202138 178.050704 0.000000 0.000000 0.000000 -151.484740 87.205592 -124.853796 0.027809 -63.025582 -19.870269 14.056427 -12.074432 19.062791 3.916992 -28.501136 -44.391851 34.026582 -13.779172 52.367098 0.000000 0.000000 0.000000 -3.449825 9.201562 64.481138 -81.248050 -32.487671 68.098428 -30.210103 -10.492973 -34.933263 -25.189545 47.195354 -26.695398 -2.335594 -64.214953 0.000000 0.000000 0.000000 0.000000 0.000000 0.000000 0.000000 -129.518974 18.494929 -20.685531 -81.459924 -80.777877 165.561421 47.194394 -78.799835 162.553554 -115.228999 -31.218989 -17.872161 -127.290720 -26.198096 -0.000000 0.000000 0.000000 0.000000 0.000000 0.000000 0.000000 
-95.439588 55.518227 2.399518 -83.758839 -17.553726 -37.608279 167.140823 -89.048297 129.870664 158.885638 -65.701943 -112.711183 117.977767 -59.958702 -103.145491 141.264679 -16.722448 138.881642 0.634700 -5.097200 -14.186000 126.141418 33.264794 10.193641 165.468043 -50.144885 -117.696671 163.196411 -54.505501 151.606578 36.673123 -32.722382 90.101670 -0.059500 -1.573300 4.327800 -176.990266 77.809873 -26.558990 154.728097 40.964182 -65.500349 21.092598 -38.638342 -38.908722 46.512667 70.022168 158.492663 -120.234691 45.767774 -14.828862 -1.102000 0.415000 9.596700 27.731561 -11.033533 -3.213618 -29.836982 -26.297119 62.374290 -79.313547 8.662234 178.953049 -81.512646 -21.837938 39.989615 -77.662046 -23.528398 0.561710 -7.125000 0.000000 0.000000 -23.341800 24.002400 12.891500 -23.284911 10.606321 -87.917206 112.696593 51.913670 -179.062274 100.838841 49.628546 -103.460594 43.406503 73.101863 -91.371865 -158.121741 47.409499 179.999999 0.000000 0.000000 0.000000 0.000000 0.000000 0.000000 
